HIERARCHY
ROOT Hips
{
    OFFSET 0.000000 0.000000 0.000000
    CHANNELS 6 Xposition Yposition Zposition Zrotation Xrotation Yrotation
    JOINT Chest
    {
        OFFSET -0.000000 0.078598 0.000000
        CHANNELS 3 Zrotation Xrotation Yrotation
        JOINT Chest2
        {
            OFFSET -0.000000 0.230468 0.000000
            CHANNELS 3 Zrotation Xrotation Yrotation
            JOINT Neck
            {
                OFFSET -0.000000 0.249638 0.000000
                CHANNELS 3 Zrotation Xrotation Yrotation
                JOINT Head
                {
                    OFFSET -0.000000 0.103998 0.019170
                    CHANNELS 3 Zrotation Xrotation Yrotation
                    End Site
                    {
                        OFFSET -0.000000 0.191701 0.000000
                    }
                }
            }
            JOINT LeftCollar
            {
                OFFSET 0.038274 0.205938 -0.001496
                CHANNELS 3 Zrotation Xrotation Yrotation
                JOINT LeftShoulder
                {
                    OFFSET 0.132388 0.000000 0.000000
                    CHANNELS 3 Zrotation Xrotation Yrotation
                    JOINT LeftElbow
                    {
                        OFFSET 0.250301 0.000000 0.000000
                        CHANNELS 3 Zrotation Xrotation Yrotation
                        JOINT LeftWrist
                        {
                            OFFSET 0.285291 0.000000 0.000000
                            CHANNELS 3 Zrotation Xrotation Yrotation
                            End Site
                            {
                                OFFSET 0.000000 -0.143776 0.000000
                            }
                        }
                    }
                }
            }
            JOINT RightCollar
            {
                OFFSET -0.038406 0.205938 -0.001496
                CHANNELS 3 Zrotation Xrotation Yrotation
                JOINT RightShoulder
                {
                    OFFSET -0.132388 0.000000 0.000000
                    CHANNELS 3 Zrotation Xrotation Yrotation
                    JOINT RightElbow
                    {
                        OFFSET -0.250301 0.000000 0.000000
                        CHANNELS 3 Zrotation Xrotation Yrotation
                        JOINT RightWrist
                        {
                            OFFSET -0.285291 0.000000 0.000000
                            CHANNELS 3 Zrotation Xrotation Yrotation
                            End Site
                            {
                                OFFSET -0.000000 -0.143776 0.000000
                            }
                        }
                    }
                }
            }
        }
    }
    JOINT LeftHip
    {
        OFFSET 0.095851 0.000000 0.000000
        CHANNELS 3 Zrotation Xrotation Yrotation
        JOINT LeftKnee
        {
            OFFSET -0.000000 -0.406444 0.000000
            CHANNELS 3 Zrotation Xrotation Yrotation
            JOINT LeftAnkle
            {
                OFFSET -0.000000 -0.408443 0.000000
                CHANNELS 3 Zrotation Xrotation Yrotation
                JOINT LeftToe
                {
                    OFFSET -0.000000 -0.062303 0.143776
                    CHANNELS 3 Zrotation Xrotation Yrotation
                    End Site
                    {
                        OFFSET -0.000000 0.000000 0.038340
                    }
                }
            }
        }
    }
    JOINT RightHip
    {
        OFFSET -0.095851 0.000000 0.000000
        CHANNELS 3 Zrotation Xrotation Yrotation
        JOINT RightKnee
        {
            OFFSET -0.000000 -0.406444 0.000000
            CHANNELS 3 Zrotation Xrotation Yrotation
            JOINT RightAnkle
            {
                OFFSET -0.000000 -0.408443 0.000000
                CHANNELS 3 Zrotation Xrotation Yrotation
                JOINT RightToe
                {
                    OFFSET -0.000000 -0.062303 0.143776
                    CHANNELS 3 Zrotation Xrotation Yrotation
                    End Site
                    {
                        OFFSET -0.000000 0.000000 0.038340
                    }
                }
            }
        }
    }
}
MOTION
Frames:    4
Frame Time:    0.016667
0.162369    0.828639    0.336766    7.183041    -4.109549    -129.510574    -3.201599    18.911539    -5.192866    2.177871    8.504193    -2.060675    7.005538    21.307526    -4.961460    0.649269    4.837470    -2.992730    10.450912    -15.807643    -24.498096    -20.158487    18.384314    -45.468864    34.241531    -29.879559    -44.691128    125.322937    1.569979    16.013670    -5.402279    -6.292236    14.848000    55.954491    34.074348    4.835535    7.270134    -9.880954    79.246468    -73.748390    -4.119853    -15.174176    14.308729    -29.210991    11.658765    -26.030878    37.474781    32.316860    3.951764    -25.579214    12.687512    0.000000    0.000000    0.000000    -9.919914    -29.563890    -3.144946    17.081614    35.538067    -9.330285    -7.654189    -23.148272    -20.608007    0.000000    0.000000    0.000000    
0.162227    0.828372    0.336980    7.354044    -3.984260    -129.512070    -3.347256    18.999245    -5.082952    2.231344    8.492415    -2.036551    7.109222    21.496086    -5.009290    0.944646    4.846392    -3.047455    10.524253    -16.046112    -24.537956    -19.388165    18.413233    -45.915501    34.547119    -29.451271    -43.694790    125.522018    0.995773    15.939354    -5.402655    -6.269563    14.963804    56.174164    34.057014    4.992835    7.265718    -9.739679    78.713989    -74.896446    -3.825830    -15.058859    14.700420    -29.299507    11.646078    -26.804712    38.116310    13.394530    12.825116    -23.162565    33.671562    0.000000    0.000000    0.000000    -9.809276    -29.483164    -3.327449    17.126663    35.378807    -9.640378    -7.502015    -23.259848    -20.155754    0.000000    0.000000    0.000000    
0.162562    0.828357    0.336754    7.517893    -3.819911    -129.548492    -3.659931    19.103935    -4.907835    2.460624    8.635050    -2.016693    7.220884    21.273514    -5.049356    1.083222    5.537975    -3.096797    10.697032    -16.153044    -24.644884    -18.866064    17.660517    -46.102585    34.257553    -28.889151    -43.399673    125.935562    0.656080    15.654005    -5.419427    -6.236490    15.126126    56.342152    34.006420    5.110347    7.205127    -9.773629    78.247826    -75.211609    -3.845272    -15.004742    15.047529    -29.495274    11.600307    -27.084129    38.335026    13.582234    12.940783    -23.038378    33.914185    0.000000    0.000000    0.000000    -9.560222    -29.491575    -3.670727    16.892611    35.436108    -9.430772    -7.101769    -23.158401    -19.788830    0.000000    0.000000    0.000000    
0.162716    0.828048    0.337369    7.771539    -3.665373    -129.441467    -3.711817    19.359537    -4.835815    2.564063    8.414872    -2.001379    7.370164    21.658367    -5.136900    1.321976    5.207358    -3.152881    10.729646    -16.186422    -24.758112    -18.081385    17.340961    -46.531590    34.663162    -28.178280    -42.501495    126.059189    0.418673    15.094392    -5.352623    -6.139283    15.061255    56.402122    34.168079    5.114717    7.113520    -9.891358    77.907997    -75.353897    -3.783360    -15.026530    15.093921    -30.142878    11.233341    -26.662592    38.432140    32.913750    4.230280    -25.486782    13.294702    0.000000    0.000000    0.000000    -9.498567    -29.632370    -4.042708    16.983356    35.571281    -9.413975    -6.885554    -23.013468    -19.573730    0.000000    0.000000    0.000000    
